<?xml version="1.0" standalone="no"?>
<!DOCTYPE svg PUBLIC "-//W3C//DTD SVG 20010904//EN"
 "http://www.w3.org/TR/2001/REC-SVG-20010904/DTD/svg10.dtd">
<svg version="1.0" xmlns="http://www.w3.org/2000/svg"
 width="48.000000pt" height="48.000000pt" viewBox="0 0 48.000000 48.000000"
 preserveAspectRatio="xMidYMid meet">

<g transform="translate(0.000000,48.000000) scale(0.100000,-0.100000)"
fill="#000000" stroke="none">
<path d="M386 438 c-14 -22 -16 -33 -8 -36 16 -5 15 -22 -3 -42 -14 -15 -14
-19 1 -30 20 -17 43 -4 64 36 8 16 19 32 25 36 12 8 -26 62 -46 66 -8 1 -23
-12 -33 -30z m55 -5 c11 -13 11 -17 2 -20 -7 -3 -13 -15 -13 -27 0 -23 -32
-61 -42 -50 -4 3 1 19 10 35 15 25 15 31 3 38 -12 8 -12 12 -2 25 17 20 25 20
42 -1z"/>
<path d="M141 375 c-41 -36 -80 -65 -86 -65 -7 0 -19 -8 -28 -18 -14 -15 -17
-41 -17 -138 0 -80 4 -124 12 -132 8 -8 67 -12 199 -12 204 0 204 0 215 61 4
19 13 38 21 42 17 11 17 71 -1 86 -8 7 -17 30 -21 52 -7 42 -27 59 -69 59 -22
0 -26 5 -26 29 0 34 -22 55 -50 48 -14 -4 -20 0 -20 12 0 21 -19 41 -39 41 -9
0 -49 -30 -90 -65z m107 22 c3 -23 -4 -30 -57 -57 -95 -47 -105 -38 -31 30 36
33 70 58 75 56 6 -1 11 -14 13 -29z m132 -243 c0 -9 -5 -14 -12 -12 -18 6 -21
28 -4 28 9 0 16 -7 16 -16z"/>
</g>
</svg>
