<!DOCTYPE svg PUBLIC "-//W3C//DTD SVG 1.1//EN" "http://www.w3.org/Graphics/SVG/1.1/DTD/svg11.dtd">
<!-- Uploaded to: SVG Repo, www.svgrepo.com, Transformed by: SVG Repo Mixer Tools -->
<svg fill="#ffffff" version="1.1" id="Layer_1" xmlns="http://www.w3.org/2000/svg" xmlns:xlink="http://www.w3.org/1999/xlink" viewBox="0 0 511.999 511.999" xml:space="preserve" width="800px" height="800px">
<g id="SVGRepo_bgCarrier" stroke-width="0"/>
<g id="SVGRepo_tracerCarrier" stroke-linecap="round" stroke-linejoin="round"/>
<g id="SVGRepo_iconCarrier"> <g> <g> <rect x="237.783" y="304.573" width="36.431" height="71.681"/> </g> </g> <g> <g> <polygon points="256,109.479 113.742,248.238 160.85,248.238 160.85,376.255 207.426,376.255 207.426,274.215 304.575,274.215 304.575,376.255 351.15,376.255 351.15,248.238 398.259,248.238 "/> </g> </g> <g> <g> <path d="M490.533,202.708l-19.281,19.282c-7.056-45.28-28.16-87.038-61.182-120.06C368.916,60.775,314.201,38.111,256,38.111 c-47.419,0-92.501,14.971-130.374,43.294c-36.607,27.376-64.206,66.372-77.715,109.806l28.989,9.017 c11.625-37.371,35.386-70.936,66.908-94.51C176.39,81.35,215.186,68.47,256,68.47c89.245,0,164.12,62.668,182.953,146.308 l-12.071-12.071l-21.467,21.467l53.292,53.292l53.291-53.292L490.533,202.708z"/> </g> </g> <g> <g> <path d="M435.1,311.771c-11.623,37.372-35.386,70.936-66.907,94.51c-32.582,24.368-71.378,37.248-112.192,37.248 c-89.245,0-164.12-62.668-182.953-146.308l12.071,12.071l21.467-21.467l-53.292-53.292L0,287.824l21.467,21.467l19.281-19.282 c7.056,45.28,28.16,87.038,61.182,120.06c41.154,41.154,95.869,63.818,154.07,63.818c47.419,0,92.501-14.971,130.374-43.294 c36.607-27.376,64.206-66.372,77.715-109.806L435.1,311.771z"/> </g> </g> </g>
</svg>